# xmcd
#
# Track frame offsets:
#	150
#	4055
#	22703
#	24826
#	74669
#	85481
#	109895
#	131030
#	152291
#	177052
#	179616
#	201640
#	207035
#	230760
#	252553
#	255346
#	279354
#	300812
#	316031
#	337118
#
# Disc length: 4771 seconds
#
# Revision: 0
# Processed by: cddbd v1.5.2PL0 Copyright (c) Steve Scherf et al.
# Submitted via: audiograbber 1.83.01
#
DISCID=0b12a114
DTITLE=Larry Schuba and Western Union - Live By Request - Das große Wunschkonzert
DTITLE=Various Artist - CD2
DYEAR=2008
DGENRE=Country
TTITLE0=Ansage
TTITLE1=Dank dir Vater
TTITLE2=Ansage
TTITLE3=Transit Cowboy
TTITLE4=Ansage
TTITLE5=Eig'ne Wege gehn
TTITLE6=Ich mag die Sonne, ich mag den Mond
TTITLE7=Gott ich hoff der Tag wird gut
TTITLE8=Bi-Ba-Baby
TTITLE9=Ansage
TTITLE10=Bunte Tränen
TTITLE11=Ansage
TTITLE12=Gäb es für mich kein Morgen mehr
TTITLE13=L.I.E.B.E. (L für Lebenslänglich)
TTITLE14=Ansage
TTITLE15=Ich möcht' so gerne mal nach Nashville
TTITLE16=Der liebe Gott der muss 'n Cowboy sein
TTITLE17=Auf der Autobahn
TTITLE18=Bärenstark
TTITLE19=Danke
EXTD=
EXTT0=
EXTT1=
EXTT2=
EXTT3=
EXTT4=
EXTT5=
EXTT6=
EXTT7=
EXTT8=
EXTT9=
EXTT10=
EXTT11=
EXTT12=
EXTT13=
EXTT14=
EXTT15=
EXTT16=
EXTT17=
EXTT18=
EXTT19=
PLAYORDER=
